<svg xmlns="http://www.w3.org/2000/svg" height="960" width="960" style=""><rect id="backgroundrect" width="100%" height="100%" x="0" y="0" fill="none" stroke="none"/><g class="currentLayer" style=""><title>Layer 1</title><path d="M483.4482764005661,906.8965092897415 q-75,0 -140.5,-28.5 t-114,-77 q-48.5,-48.5 -77,-114 T123.4482764005661,546.8965092897415 h80 q0,117 81.5,198.5 T483.4482764005661,826.8965092897415 q117,0 198.5,-81.5 T763.4482764005661,546.8965092897415 q0,-117 -81.5,-198.5 T483.4482764005661,266.8965092897415 h-6 l62,62 l-56,58 l-160,-160 l160,-160 l56,58 l-62,62 h6 q75,0 140.5,28.5 t114,77 q48.5,48.5 77,114 T843.4482764005661,546.8965092897415 q0,75 -28.5,140.5 t-77,114 q-48.5,48.5 -114,77 T483.4482764005661,906.8965092897415 z" id="svg_1" class="selected" fill-opacity="1" fill="#f4b66f"/></g></svg>